<svg width="120" height="120" viewBox="0 0 120 120" fill="none" xmlns="http://www.w3.org/2000/svg">
<path d="M114 111.907C112.844 111.907 111.906 112.844 111.906 114C111.906 115.156 112.844 116.094 114 116.094C115.156 116.094 116.093 115.156 116.093 114C116.093 112.844 115.156 111.907 114 111.907Z" fill="#301759"/>
<path d="M114 99.8467C112.811 99.8467 111.847 100.811 111.847 102C111.847 103.189 112.811 104.153 114 104.153C115.189 104.153 116.153 103.189 116.153 102C116.153 100.811 115.189 99.8467 114 99.8467Z" fill="#301759"/>
<path d="M114 87.8047C112.788 87.8047 111.805 88.7875 111.805 90C111.805 91.2124 112.788 92.1953 114 92.1953C115.212 92.1953 116.195 91.2124 116.195 90C116.195 88.7875 115.212 87.8047 114 87.8047Z" fill="#301759"/>
<path d="M114 75.7812C112.774 75.7812 111.781 76.7747 111.781 78.0002C111.781 79.2256 112.774 80.2191 114 80.2191C115.225 80.2191 116.219 79.2256 116.219 78.0002C116.219 76.7747 115.225 75.7812 114 75.7812Z" fill="#301759"/>
<path d="M114 63.7759C112.772 63.7759 111.776 64.7718 111.776 66.0002C111.776 67.2286 112.772 68.2244 114 68.2244C115.228 68.2244 116.224 67.2286 116.224 66.0002C116.224 64.7718 115.228 63.7759 114 63.7759Z" fill="#301759"/>
<path d="M114 51.7871C112.778 51.7871 111.787 52.7779 111.787 54.0001C111.787 55.2222 112.778 56.213 114 56.213C115.222 56.213 116.213 55.2222 116.213 54.0001C116.213 52.7779 115.222 51.7871 114 51.7871Z" fill="#301759"/>
<path d="M114 39.812C112.792 39.812 111.812 40.7916 111.812 42C111.812 43.2084 112.792 44.188 114 44.188C115.208 44.188 116.188 43.2084 116.188 42C116.188 40.7916 115.208 39.812 114 39.812Z" fill="#301759"/>
<path d="M114 27.8467C112.811 27.8467 111.847 28.8108 111.847 30.0001C111.847 31.1893 112.811 32.1534 114 32.1534C115.189 32.1534 116.153 31.1893 116.153 30.0001C116.153 28.8108 115.189 27.8467 114 27.8467Z" fill="#301759"/>
<path d="M114 15.8867C112.833 15.8867 111.887 16.833 111.887 18.0003C111.887 19.1676 112.833 20.1139 114 20.1139C115.167 20.1139 116.114 19.1676 116.114 18.0003C116.114 16.833 115.167 15.8867 114 15.8867Z" fill="#301759"/>
<path d="M114 3.92676C112.855 3.92676 111.927 4.85498 111.927 6C111.927 7.14502 112.855 8.07324 114 8.07324C115.145 8.07324 116.073 7.14502 116.073 6C116.073 4.85498 115.145 3.92676 114 3.92676Z" fill="#301759"/>
<path d="M102 111.828C100.8 111.828 99.8276 112.8 99.8276 114C99.8276 115.2 100.8 116.172 102 116.172C103.2 116.172 104.172 115.2 104.172 114C104.172 112.8 103.2 111.828 102 111.828Z" fill="#301759"/>
<path d="M102 99.7598C100.763 99.7598 99.7598 100.763 99.7598 102C99.7598 103.237 100.763 104.24 102 104.24C103.237 104.24 104.24 103.237 104.24 102C104.24 100.763 103.237 99.7598 102 99.7598Z" fill="#301759"/>
<path d="M102 87.708C100.734 87.708 99.7085 88.7341 99.7085 89.9999C99.7085 91.2656 100.734 92.2917 102 92.2917C103.266 92.2917 104.292 91.2656 104.292 89.9999C104.292 88.7341 103.266 87.708 102 87.708Z" fill="#301759"/>
<path d="M102 75.6738C100.716 75.6738 99.6743 76.7152 99.6743 77.9999C99.6743 79.2845 100.716 80.3259 102 80.3259C103.285 80.3259 104.326 79.2845 104.326 77.9999C104.326 76.7152 103.285 75.6738 102 75.6738Z" fill="#301759"/>
<path d="M102 63.6572C100.706 63.6572 99.6572 64.7061 99.6572 66.0001C99.6572 67.294 100.706 68.3429 102 68.3429C103.294 68.3429 104.343 67.294 104.343 66.0001C104.343 64.7061 103.294 63.6572 102 63.6572Z" fill="#301759"/>
<path d="M102 51.6562C100.705 51.6562 99.6562 52.7056 99.6562 54.0001C99.6562 55.2945 100.705 56.3439 102 56.3439C103.294 56.3439 104.344 55.2945 104.344 54.0001C104.344 52.7056 103.294 51.6562 102 51.6562Z" fill="#301759"/>
<path d="M102 39.6685C100.712 39.6685 99.6685 40.7124 99.6685 42.0001C99.6685 43.2878 100.712 44.3316 102 44.3316C103.288 44.3316 104.332 43.2878 104.332 42.0001C104.332 40.7124 103.288 39.6685 102 39.6685Z" fill="#301759"/>
<path d="M102 27.6904C100.724 27.6904 99.6904 28.7245 99.6904 30.0001C99.6904 31.2756 100.724 32.3097 102 32.3097C103.276 32.3097 104.31 31.2756 104.31 30.0001C104.31 28.7245 103.276 27.6904 102 27.6904Z" fill="#301759"/>
<path d="M102 15.7178C100.739 15.7178 99.7173 16.7396 99.7173 18.0002C99.7173 19.2607 100.739 20.2826 102 20.2826C103.26 20.2826 104.282 19.2607 104.282 18.0002C104.282 16.7396 103.26 15.7178 102 15.7178Z" fill="#301759"/>
<path d="M102 3.74609C100.755 3.74609 99.7456 4.7553 99.7456 6.00022C99.7456 7.24514 100.755 8.25435 102 8.25435C103.245 8.25435 104.254 7.24514 104.254 6.00022C104.254 4.7553 103.245 3.74609 102 3.74609Z" fill="#301759"/>
<path d="M89.9998 111.755C88.7597 111.755 87.7544 112.76 87.7544 114C87.7544 115.24 88.7597 116.245 89.9998 116.245C91.2398 116.245 92.2451 115.24 92.2451 114C92.2451 112.76 91.2398 111.755 89.9998 111.755Z" fill="#301759"/>
<path d="M89.9998 99.6787C88.7176 99.6787 87.6782 100.718 87.6782 102C87.6782 103.282 88.7176 104.322 89.9998 104.322C91.2819 104.322 92.3213 103.282 92.3213 102C92.3213 100.718 91.2819 99.6787 89.9998 99.6787Z" fill="#301759"/>
<path d="M90 87.6167C88.6837 87.6167 87.6167 88.6838 87.6167 90.0001C87.6167 91.3163 88.6837 92.3834 90 92.3834C91.3162 92.3834 92.3833 91.3163 92.3833 90.0001C92.3833 88.6838 91.3162 87.6167 90 87.6167Z" fill="#301759"/>
<path d="M90.0003 75.5703C88.6585 75.5703 87.5708 76.6581 87.5708 77.9999C87.5708 79.3417 88.6585 80.4294 90.0003 80.4294C91.3421 80.4294 92.4299 79.3417 92.4299 77.9999C92.4299 76.6581 91.3421 75.5703 90.0003 75.5703Z" fill="#301759"/>
<path d="M89.9996 63.54C88.6409 63.54 87.5396 64.6415 87.5396 66.0002C87.5396 67.3589 88.6409 68.4603 89.9996 68.4603C91.3583 68.4603 92.4598 67.3589 92.4598 66.0002C92.4598 64.6415 91.3583 63.54 89.9996 63.54Z" fill="#301759"/>
<path d="M90 51.5239C88.6325 51.5239 87.5239 52.6325 87.5239 54.0001C87.5239 55.3676 88.6325 56.4762 90 56.4762C91.3676 56.4762 92.4762 55.3676 92.4762 54.0001C92.4762 52.6325 91.3676 51.5239 90 51.5239Z" fill="#301759"/>
<path d="M90.0004 39.52C88.6308 39.52 87.5205 40.6303 87.5205 41.9999C87.5205 43.3694 88.6308 44.4797 90.0004 44.4797C91.3699 44.4797 92.4802 43.3694 92.4802 41.9999C92.4802 40.6303 91.3699 39.52 90.0004 39.52Z" fill="#301759"/>
<path d="M89.9997 27.5259C88.6332 27.5259 87.5254 28.6337 87.5254 30.0002C87.5254 31.3667 88.6332 32.4744 89.9997 32.4744C91.3662 32.4744 92.4739 31.3667 92.4739 30.0002C92.4739 28.6337 91.3662 27.5259 89.9997 27.5259Z" fill="#301759"/>
<path d="M89.9997 15.5371C88.6394 15.5371 87.5366 16.6398 87.5366 18.0002C87.5366 19.3605 88.6394 20.4633 89.9997 20.4633C91.36 20.4633 92.4628 19.3605 92.4628 18.0002C92.4628 16.6398 91.36 15.5371 89.9997 15.5371Z" fill="#301759"/>
<path d="M90.0003 3.55029C88.6472 3.55029 87.5503 4.64718 87.5503 6.00027C87.5503 7.35336 88.6472 8.45025 90.0003 8.45025C91.3534 8.45025 92.4503 7.35336 92.4503 6.00027C92.4503 4.64718 91.3534 3.55029 90.0003 3.55029Z" fill="#301759"/>
<path d="M77.9999 111.687C76.7222 111.687 75.6865 112.722 75.6865 114C75.6865 115.278 76.7222 116.313 77.9999 116.313C79.2775 116.313 80.3133 115.278 80.3133 114C80.3133 112.722 79.2775 111.687 77.9999 111.687Z" fill="#301759"/>
<path d="M78.0003 99.603C76.6763 99.603 75.603 100.676 75.603 102C75.603 103.324 76.6763 104.397 78.0003 104.397C79.3243 104.397 80.3976 103.324 80.3976 102C80.3976 100.676 79.3243 99.603 78.0003 99.603Z" fill="#301759"/>
<path d="M77.9997 87.5308C76.6359 87.5308 75.5303 88.6364 75.5303 90.0002C75.5303 91.364 76.6359 92.4696 77.9997 92.4696C79.3635 92.4696 80.4691 91.364 80.4691 90.0002C80.4691 88.6364 79.3635 87.5308 77.9997 87.5308Z" fill="#301759"/>
<path d="M77.9996 75.4717C76.6032 75.4717 75.4712 76.6037 75.4712 78.0002C75.4712 79.3966 76.6032 80.5286 77.9996 80.5286C79.3961 80.5286 80.5281 79.3966 80.5281 78.0002C80.5281 76.6037 79.3961 75.4717 77.9996 75.4717Z" fill="#301759"/>
<path d="M78 63.4258C76.5783 63.4258 75.4258 64.5783 75.4258 66C75.4258 67.4217 76.5783 68.5742 78 68.5742C79.4217 68.5742 80.5742 67.4217 80.5742 66C80.5742 64.5783 79.4217 63.4258 78 63.4258Z" fill="#301759"/>
<path d="M78.0004 51.3926C76.5604 51.3926 75.3931 52.5599 75.3931 53.9999C75.3931 55.4398 76.5604 56.6071 78.0004 56.6071C79.4403 56.6071 80.6076 55.4398 80.6076 53.9999C80.6076 52.5599 79.4403 51.3926 78.0004 51.3926Z" fill="#301759"/>
<path d="M78.0004 39.3706C76.5483 39.3706 75.3711 40.5478 75.3711 41.9999C75.3711 43.452 76.5483 44.6291 78.0004 44.6291C79.4524 44.6291 80.6296 43.452 80.6296 41.9999C80.6296 40.5478 79.4524 39.3706 78.0004 39.3706Z" fill="#301759"/>
<path d="M78.0003 27.3574C76.5409 27.3574 75.3579 28.5405 75.3579 29.9999C75.3579 31.4593 76.5409 32.6423 78.0003 32.6423C79.4597 32.6423 80.6428 31.4593 80.6428 29.9999C80.6428 28.5405 79.4597 27.3574 78.0003 27.3574Z" fill="#301759"/>
<path d="M77.9998 15.3506C76.5364 15.3506 75.3501 16.5369 75.3501 18.0003C75.3501 19.4636 76.5364 20.6499 77.9998 20.6499C79.4631 20.6499 80.6494 19.4636 80.6494 18.0003C80.6494 16.5369 79.4631 15.3506 77.9998 15.3506Z" fill="#301759"/>
<path d="M78.0001 3.34668C76.5347 3.34668 75.3467 4.53462 75.3467 6.00002C75.3467 7.46542 76.5347 8.65336 78.0001 8.65336C79.4655 8.65336 80.6534 7.46542 80.6534 6.00002C80.6534 4.53462 79.4655 3.34668 78.0001 3.34668Z" fill="#301759"/>
<path d="M66.0003 111.621C64.6866 111.621 63.6216 112.686 63.6216 114C63.6216 115.314 64.6866 116.379 66.0003 116.379C67.314 116.379 68.379 115.314 68.379 114C68.379 112.686 67.314 111.621 66.0003 111.621Z" fill="#301759"/>
<path d="M66 99.5308C64.6363 99.5308 63.5308 100.636 63.5308 102C63.5308 103.364 64.6363 104.469 66 104.469C67.3636 104.469 68.4691 103.364 68.4691 102C68.4691 100.636 67.3636 99.5308 66 99.5308Z" fill="#301759"/>
<path d="M65.9997 87.4492C64.5908 87.4492 63.4487 88.5913 63.4487 90.0002C63.4487 91.409 64.5908 92.5512 65.9997 92.5512C67.4086 92.5512 68.5507 91.409 68.5507 90.0002C68.5507 88.5913 67.4086 87.4492 65.9997 87.4492Z" fill="#301759"/>
<path d="M66.0003 75.377C64.5517 75.377 63.3774 76.5513 63.3774 77.9999C63.3774 79.4484 64.5517 80.6227 66.0003 80.6227C67.4489 80.6227 68.6231 79.4484 68.6231 77.9999C68.6231 76.5513 67.4489 75.377 66.0003 75.377Z" fill="#301759"/>
<path d="M66 63.3159C64.5176 63.3159 63.3159 64.5177 63.3159 66.0001C63.3159 67.4825 64.5176 68.6842 66 68.6842C67.4825 68.6842 68.6842 67.4825 68.6842 66.0001C68.6842 64.5177 67.4825 63.3159 66 63.3159Z" fill="#301759"/>
<path d="M66.0001 51.2651C64.4896 51.2651 63.2651 52.4896 63.2651 54.0001C63.2651 55.5105 64.4896 56.735 66.0001 56.735C67.5106 56.735 68.7351 55.5105 68.7351 54.0001C68.7351 52.4896 67.5106 51.2651 66.0001 51.2651Z" fill="#301759"/>
<path d="M66.0002 39.2241C64.467 39.2241 63.2241 40.4671 63.2241 42.0003C63.2241 43.5335 64.467 44.7764 66.0002 44.7764C67.5334 44.7764 68.7764 43.5335 68.7764 42.0003C68.7764 40.4671 67.5334 39.2241 66.0002 39.2241Z" fill="#301759"/>
<path d="M66.0003 27.1909C64.449 27.1909 63.1914 28.4485 63.1914 29.9999C63.1914 31.5512 64.449 32.8088 66.0003 32.8088C67.5517 32.8088 68.8093 31.5512 68.8093 29.9999C68.8093 28.4485 67.5517 27.1909 66.0003 27.1909Z" fill="#301759"/>
<path d="M66.0003 15.165C64.4347 15.165 63.1655 16.4342 63.1655 17.9999C63.1655 19.5655 64.4347 20.8347 66.0003 20.8347C67.566 20.8347 68.8352 19.5655 68.8352 17.9999C68.8352 16.4342 67.566 15.165 66.0003 15.165Z" fill="#301759"/>
<path d="M65.9999 3.14453C64.4229 3.14453 63.1445 4.42292 63.1445 5.99989C63.1445 7.57687 64.4229 8.85526 65.9999 8.85526C67.5769 8.85526 68.8553 7.57687 68.8553 5.99989C68.8553 4.42292 67.5769 3.14453 65.9999 3.14453Z" fill="#301759"/>
<path d="M54 111.556C52.6501 111.556 51.5557 112.65 51.5557 114C51.5557 115.35 52.6501 116.444 54 116.444C55.35 116.444 56.4443 115.35 56.4443 114C56.4443 112.65 55.35 111.556 54 111.556Z" fill="#301759"/>
<path d="M54 99.4604C52.5975 99.4604 51.4604 100.598 51.4604 102C51.4604 103.403 52.5975 104.54 54 104.54C55.4026 104.54 56.5396 103.403 56.5396 102C56.5396 100.598 55.4026 99.4604 54 99.4604Z" fill="#301759"/>
<path d="M53.9997 87.3706C52.5474 87.3706 51.3701 88.5479 51.3701 90.0002C51.3701 91.4524 52.5474 92.6297 53.9997 92.6297C55.452 92.6297 56.6293 91.4524 56.6293 90.0002C56.6293 88.5479 55.452 87.3706 53.9997 87.3706Z" fill="#301759"/>
<path d="M53.9996 75.2871C52.5013 75.2871 51.2866 76.5018 51.2866 78.0002C51.2866 79.4985 52.5013 80.7132 53.9996 80.7132C55.498 80.7132 56.7127 79.4985 56.7127 78.0002C56.7127 76.5018 55.498 75.2871 53.9996 75.2871Z" fill="#301759"/>
<path d="M54.0003 63.2114C52.46 63.2114 51.2114 64.46 51.2114 66.0003C51.2114 67.5405 52.46 68.7892 54.0003 68.7892C55.5405 68.7892 56.7892 67.5405 56.7892 66.0003C56.7892 64.46 55.5405 63.2114 54.0003 63.2114Z" fill="#301759"/>
<path d="M53.9997 51.1436C52.422 51.1436 51.1431 52.4225 51.1431 54.0002C51.1431 55.5778 52.422 56.8567 53.9997 56.8567C55.5773 56.8567 56.8562 55.5778 56.8562 54.0002C56.8562 52.4225 55.5773 51.1436 53.9997 51.1436Z" fill="#301759"/>
<path d="M54.0003 39.084C52.3899 39.084 51.0845 40.3895 51.0845 41.9999C51.0845 43.6103 52.3899 44.9158 54.0003 44.9158C55.6107 44.9158 56.9162 43.6103 56.9162 41.9999C56.9162 40.3895 55.6107 39.084 54.0003 39.084Z" fill="#301759"/>
<path d="M53.9997 27.0332C52.361 27.0332 51.0327 28.3615 51.0327 30.0002C51.0327 31.6388 52.361 32.9672 53.9997 32.9672C55.6383 32.9672 56.9667 31.6388 56.9667 30.0002C56.9667 28.3615 55.6383 27.0332 53.9997 27.0332Z" fill="#301759"/>
<path d="M54.0002 14.9897C52.3375 14.9897 50.9897 16.3375 50.9897 18.0002C50.9897 19.6628 52.3375 21.0107 54.0002 21.0107C55.6628 21.0107 57.0106 19.6628 57.0106 18.0002C57.0106 16.3375 55.6628 14.9897 54.0002 14.9897Z" fill="#301759"/>
<path d="M53.9996 2.95312C52.3168 2.95312 50.9526 4.31733 50.9526 6.00015C50.9526 7.68298 52.3168 9.04717 53.9996 9.04717C55.6825 9.04717 57.0467 7.68298 57.0467 6.00015C57.0467 4.31733 55.6825 2.95312 53.9996 2.95312Z" fill="#301759"/>
<path d="M41.9999 111.487C40.612 111.487 39.4868 112.612 39.4868 114C39.4868 115.388 40.612 116.513 41.9999 116.513C43.3878 116.513 44.513 115.388 44.513 114C44.513 112.612 43.3878 111.487 41.9999 111.487Z" fill="#301759"/>
<path d="M41.9999 99.3896C40.5582 99.3896 39.3896 100.558 39.3896 102C39.3896 103.442 40.5582 104.61 41.9999 104.61C43.4415 104.61 44.6102 103.442 44.6102 102C44.6102 100.558 43.4415 99.3896 41.9999 99.3896Z" fill="#301759"/>
<path d="M42.0003 87.2939C40.5059 87.2939 39.2944 88.5054 39.2944 89.9999C39.2944 91.4943 40.5059 92.7058 42.0003 92.7058C43.4948 92.7058 44.7063 91.4943 44.7063 89.9999C44.7063 88.5054 43.4948 87.2939 42.0003 87.2939Z" fill="#301759"/>
<path d="M42.0001 75.2017C40.4546 75.2017 39.2017 76.4546 39.2017 78.0001C39.2017 79.5456 40.4546 80.7984 42.0001 80.7984C43.5456 80.7984 44.7984 79.5456 44.7984 78.0001C44.7984 76.4546 43.5456 75.2017 42.0001 75.2017Z" fill="#301759"/>
<path d="M42.0004 63.1138C40.4065 63.1138 39.1143 64.4059 39.1143 65.9999C39.1143 67.5938 40.4065 68.8859 42.0004 68.8859C43.5943 68.8859 44.8864 67.5938 44.8864 65.9999C44.8864 64.4059 43.5943 63.1138 42.0004 63.1138Z" fill="#301759"/>
<path d="M41.9999 51.0322C40.3609 51.0322 39.0322 52.3609 39.0322 54C39.0322 55.639 40.3609 56.9677 41.9999 56.9677C43.639 56.9677 44.9677 55.639 44.9677 54C44.9677 52.3609 43.639 51.0322 41.9999 51.0322Z" fill="#301759"/>
<path d="M41.9999 38.9575C40.3196 38.9575 38.9575 40.3197 38.9575 42C38.9575 43.6803 40.3196 45.0424 41.9999 45.0424C43.6802 45.0424 45.0424 43.6803 45.0424 42C45.0424 40.3197 43.6802 38.9575 41.9999 38.9575Z" fill="#301759"/>
<path d="M41.9997 26.8906C40.2823 26.8906 38.8901 28.2828 38.8901 30.0002C38.8901 31.7175 40.2823 33.1098 41.9997 33.1098C43.7171 33.1098 45.1093 31.7175 45.1093 30.0002C45.1093 28.2828 43.7171 26.8906 41.9997 26.8906Z" fill="#301759"/>
<path d="M42.0003 14.8315C40.2502 14.8315 38.8315 16.2502 38.8315 18.0003C38.8315 19.7503 40.2502 21.169 42.0003 21.169C43.7503 21.169 45.169 19.7503 45.169 18.0003C45.169 16.2502 43.7503 14.8315 42.0003 14.8315Z" fill="#301759"/>
<path d="M41.9997 2.78027C40.2214 2.78027 38.7798 4.22186 38.7798 6.00015C38.7798 7.77845 40.2214 9.22004 41.9997 9.22004C43.778 9.22004 45.2196 7.77845 45.2196 6.00015C45.2196 4.22186 43.778 2.78027 41.9997 2.78027Z" fill="#301759"/>
<path d="M30 111.414C28.5719 111.414 27.4141 112.572 27.4141 114C27.4141 115.428 28.5719 116.586 30 116.586C31.4281 116.586 32.5858 115.428 32.5858 114C32.5858 112.572 31.4281 111.414 30 111.414Z" fill="#301759"/>
<path d="M29.9997 99.3188C28.5188 99.3188 27.3184 100.519 27.3184 102C27.3184 103.481 28.5188 104.681 29.9997 104.681C31.4805 104.681 32.681 103.481 32.681 102C32.681 100.519 31.4805 99.3188 29.9997 99.3188Z" fill="#301759"/>
<path d="M30.0003 87.2212C28.4657 87.2212 27.2217 88.4653 27.2217 89.9999C27.2217 91.5345 28.4657 92.7785 30.0003 92.7785C31.535 92.7785 32.779 91.5345 32.779 89.9999C32.779 88.4653 31.535 87.2212 30.0003 87.2212Z" fill="#301759"/>
<path d="M29.9997 75.124C28.4112 75.124 27.1235 76.4117 27.1235 78.0002C27.1235 79.5886 28.4112 80.8763 29.9997 80.8763C31.5882 80.8763 32.8759 79.5886 32.8759 78.0002C32.8759 76.4117 31.5882 75.124 29.9997 75.124Z" fill="#301759"/>
<path d="M30.0002 63.0283C28.3589 63.0283 27.0283 64.3589 27.0283 66.0003C27.0283 67.6416 28.3589 68.9722 30.0002 68.9722C31.6416 68.9722 32.9722 67.6416 32.9722 66.0003C32.9722 64.3589 31.6416 63.0283 30.0002 63.0283Z" fill="#301759"/>
<path d="M29.9996 50.936C28.3073 50.936 26.9355 52.3079 26.9355 54.0002C26.9355 55.6924 28.3073 57.0643 29.9996 57.0643C31.6919 57.0643 33.0638 55.6924 33.0638 54.0002C33.0638 52.3079 31.6919 50.936 29.9996 50.936Z" fill="#301759"/>
<path d="M29.9997 38.8491C28.2594 38.8491 26.8486 40.2599 26.8486 42.0002C26.8486 43.7405 28.2594 45.1513 29.9997 45.1513C31.74 45.1513 33.1508 43.7405 33.1508 42.0002C33.1508 40.2599 31.74 38.8491 29.9997 38.8491Z" fill="#301759"/>
<path d="M30.0003 26.7686C28.2157 26.7686 26.769 28.2153 26.769 30C26.769 31.7846 28.2157 33.2313 30.0003 33.2313C31.7849 33.2313 33.2316 31.7846 33.2316 30C33.2316 28.2153 31.7849 26.7686 30.0003 26.7686Z" fill="#301759"/>
<path d="M30 14.6963C28.1754 14.6963 26.6963 16.1754 26.6963 18C26.6963 19.8246 28.1754 21.3037 30 21.3037C31.8246 21.3037 33.3037 19.8246 33.3037 18C33.3037 16.1754 31.8246 14.6963 30 14.6963Z" fill="#301759"/>
<path d="M30 2.63281C28.1403 2.63281 26.6328 4.14038 26.6328 6.00007C26.6328 7.85977 28.1403 9.36734 30 9.36734C31.8597 9.36734 33.3673 7.85977 33.3673 6.00007C33.3673 4.14038 31.8597 2.63281 30 2.63281Z" fill="#301759"/>
<path d="M17.9999 111.339C16.5303 111.339 15.3389 112.53 15.3389 114C15.3389 115.47 16.5303 116.661 17.9999 116.661C19.4696 116.661 20.6609 115.47 20.6609 114C20.6609 112.53 19.4696 111.339 17.9999 111.339Z" fill="#301759"/>
<path d="M17.9997 99.249C16.4802 99.249 15.2485 100.481 15.2485 102C15.2485 103.52 16.4802 104.751 17.9997 104.751C19.5191 104.751 20.7509 103.52 20.7509 102C20.7509 100.481 19.5191 99.249 17.9997 99.249Z" fill="#301759"/>
<path d="M18.0002 87.1533C16.4279 87.1533 15.1533 88.4279 15.1533 90.0003C15.1533 91.5726 16.4279 92.8472 18.0002 92.8472C19.5725 92.8472 20.8472 91.5726 20.8472 90.0003C20.8472 88.4279 19.5725 87.1533 18.0002 87.1533Z" fill="#301759"/>
<path d="M17.9999 75.0537C16.3728 75.0537 15.0537 76.3727 15.0537 77.9999C15.0537 79.627 16.3728 80.9461 17.9999 80.9461C19.627 80.9461 20.9461 79.627 20.9461 77.9999C20.9461 76.3727 19.627 75.0537 17.9999 75.0537Z" fill="#301759"/>
<path d="M18.0002 62.9536C16.3176 62.9536 14.9536 64.3177 14.9536 66.0003C14.9536 67.6829 16.3176 69.0469 18.0002 69.0469C19.6828 69.0469 21.0469 67.6829 21.0469 66.0003C21.0469 64.3177 19.6828 62.9536 18.0002 62.9536Z" fill="#301759"/>
<path d="M17.9999 50.854C16.2625 50.854 14.854 52.2624 14.854 53.9999C14.854 55.7373 16.2625 57.1458 17.9999 57.1458C19.7373 57.1458 21.1458 55.7373 21.1458 53.9999C21.1458 52.2624 19.7373 50.854 17.9999 50.854Z" fill="#301759"/>
<path d="M18 38.7583C16.2097 38.7583 14.7583 40.2097 14.7583 42C14.7583 43.7903 16.2097 45.2416 18 45.2416C19.7903 45.2416 21.2416 43.7903 21.2416 42C21.2416 40.2097 19.7903 38.7583 18 38.7583Z" fill="#301759"/>
<path d="M18.0001 26.6685C16.1601 26.6685 14.6685 28.1602 14.6685 30.0002C14.6685 31.8402 16.1601 33.3318 18.0001 33.3318C19.8401 33.3318 21.3317 31.8402 21.3317 30.0002C21.3317 28.1602 19.8401 26.6685 18.0001 26.6685Z" fill="#301759"/>
<path d="M18.0003 14.5859C16.1148 14.5859 14.5864 16.1144 14.5864 17.9999C14.5864 19.8853 16.1148 21.4138 18.0003 21.4138C19.8858 21.4138 21.4143 19.8853 21.4143 17.9999C21.4143 16.1144 19.8858 14.5859 18.0003 14.5859Z" fill="#301759"/>
<path d="M18.0001 2.51318C16.0743 2.51318 14.5132 4.07432 14.5132 6.0001C14.5132 7.92587 16.0743 9.48702 18.0001 9.48702C19.9259 9.48702 21.487 7.92587 21.487 6.0001C21.487 4.07432 19.9259 2.51318 18.0001 2.51318Z" fill="#301759"/>
<path d="M5.99997 111.261C4.48714 111.261 3.26074 112.487 3.26074 114C3.26074 115.513 4.48714 116.739 5.99997 116.739C7.51281 116.739 8.73921 115.513 8.73921 114C8.73921 112.487 7.51281 111.261 5.99997 111.261Z" fill="#301759"/>
<path d="M5.99992 99.1777C4.44126 99.1777 3.17773 100.441 3.17773 102C3.17773 103.559 4.44126 104.822 5.99992 104.822C7.55857 104.822 8.82211 103.559 8.82211 102C8.82211 100.441 7.55857 99.1777 5.99992 99.1777Z" fill="#301759"/>
<path d="M6.00033 87.0864C4.39103 87.0864 3.08643 88.391 3.08643 90.0003C3.08643 91.6096 4.39103 92.9142 6.00033 92.9142C7.60963 92.9142 8.91422 91.6096 8.91422 90.0003C8.91422 88.391 7.60963 87.0864 6.00033 87.0864Z" fill="#301759"/>
<path d="M6.00035 74.9878C4.33683 74.9878 2.98828 76.3364 2.98828 77.9999C2.98828 79.6634 4.33683 81.0119 6.00035 81.0119C7.66387 81.0119 9.01242 79.6634 9.01242 77.9999C9.01242 76.3364 7.66387 74.9878 6.00035 74.9878Z" fill="#301759"/>
<path d="M6.00025 62.8862C4.28043 62.8862 2.88623 64.2803 2.88623 66.0002C2.88623 67.72 4.28043 69.1142 6.00025 69.1142C7.72007 69.1142 9.11427 67.72 9.11427 66.0002C9.11427 64.2803 7.72007 62.8862 6.00025 62.8862Z" fill="#301759"/>
<path d="M6.00004 50.7832C4.22343 50.7832 2.7832 52.2235 2.7832 54.0001C2.7832 55.7767 4.22343 57.2169 6.00004 57.2169C7.77664 57.2169 9.21687 55.7767 9.21687 54.0001C9.21687 52.2235 7.77664 50.7832 6.00004 50.7832Z" fill="#301759"/>
<path d="M5.99969 38.6826C4.16745 38.6826 2.68213 40.1679 2.68213 42.0002C2.68213 43.8324 4.16745 45.3177 5.99969 45.3177C7.83193 45.3177 9.31725 43.8324 9.31725 42.0002C9.31725 40.1679 7.83193 38.6826 5.99969 38.6826Z" fill="#301759"/>
<path d="M6.00032 26.5869C4.11515 26.5869 2.58691 28.1151 2.58691 30.0003C2.58691 31.8854 4.11515 33.4137 6.00032 33.4137C7.88549 33.4137 9.41372 31.8854 9.41372 30.0003C9.41372 28.1151 7.88549 26.5869 6.00032 26.5869Z" fill="#301759"/>
<path d="M6.0003 14.4985C4.06632 14.4985 2.49854 16.0663 2.49854 18.0003C2.49854 19.9342 4.06632 21.502 6.0003 21.502C7.93427 21.502 9.50207 19.9342 9.50207 18.0003C9.50207 16.0663 7.93427 14.4985 6.0003 14.4985Z" fill="#301759"/>
<path d="M6.0003 2.41992C4.02291 2.41992 2.41992 4.02291 2.41992 6.00029C2.41992 7.97768 4.02291 9.58067 6.0003 9.58067C7.97769 9.58067 9.58068 7.97768 9.58068 6.00029C9.58068 4.02291 7.97769 2.41992 6.0003 2.41992Z" fill="#301759"/>
</svg>
