<svg width="147" height="147" viewBox="0 0 147 147" fill="none" xmlns="http://www.w3.org/2000/svg">
<g clip-path="url(#clip0_483_240)">
<path d="M34.6006 9.36436C35.7176 9.6619 36.8652 8.99789 37.1627 7.88083C37.4603 6.76378 36.7953 5.61595 35.6782 5.31842C34.5612 5.02089 33.4143 5.68612 33.1168 6.80317C32.8192 7.92023 33.4835 9.06683 34.6006 9.36436Z" fill="#2E1656"/>
<path d="M31.4967 21.0181C32.6456 21.3241 33.8253 20.6406 34.1313 19.4917C34.4373 18.3428 33.7539 17.1631 32.605 16.8571C31.4561 16.5511 30.2764 17.2345 29.9704 18.3834C29.6644 19.5324 30.3477 20.7121 31.4967 21.0181Z" fill="#2E1656"/>
<path d="M28.3975 32.6548C29.5687 32.9667 30.7715 32.27 31.0836 31.0984C31.3956 29.9268 30.6987 28.724 29.5276 28.4121C28.3564 28.1002 27.1535 28.7969 26.8415 29.9685C26.5294 31.1401 27.2263 32.3428 28.3975 32.6548Z" fill="#2E1656"/>
<path d="M25.302 44.2731C26.4867 44.5887 27.702 43.8843 28.0174 42.7001C28.3328 41.516 27.629 40.3004 26.4443 39.9848C25.2605 39.6695 24.0443 40.3737 23.7289 41.5578C23.4135 42.742 24.1183 43.9578 25.302 44.2731Z" fill="#2E1656"/>
<path d="M22.2123 55.8739C23.3989 56.1899 24.6177 55.4839 24.9338 54.2969C25.25 53.1099 24.5438 51.8913 23.3572 51.5752C22.1706 51.2592 20.9518 51.9651 20.6357 53.1521C20.3195 54.3391 21.0256 55.5578 22.2123 55.8739Z" fill="#2E1656"/>
<path d="M19.1272 67.4587C20.308 67.7733 21.5206 67.0709 21.8352 65.8899C22.1498 64.709 21.4472 63.4965 20.2663 63.1819C19.0855 62.8674 17.8729 63.5698 17.5583 64.7507C17.2438 65.9317 17.9464 67.1442 19.1272 67.4587Z" fill="#2E1656"/>
<path d="M16.0449 79.0306C17.2122 79.3415 18.4113 78.6472 18.7223 77.4795C19.0334 76.3118 18.3385 75.1129 17.1712 74.802C16.0039 74.4911 14.8048 75.1855 14.4938 76.3532C14.1827 77.5208 14.8776 78.7197 16.0449 79.0306Z" fill="#2E1656"/>
<path d="M12.9654 90.5928C14.1144 90.8989 15.294 90.2154 15.6001 89.0661C15.9062 87.917 15.2228 86.7373 14.0739 86.4312C12.925 86.1252 11.7453 86.8087 11.4392 87.9578C11.1331 89.1071 11.8165 90.2868 12.9654 90.5928Z" fill="#2E1656"/>
<path d="M9.8869 102.15C11.0146 102.45 12.1723 101.779 12.4727 100.651C12.7732 99.5235 12.1026 98.3656 10.9749 98.0652C9.84722 97.7648 8.68857 98.4355 8.38813 99.5635C8.08768 100.691 8.75922 101.85 9.8869 102.15Z" fill="#2E1656"/>
<path d="M6.80837 113.707C7.91479 114.001 9.05043 113.343 9.34514 112.237C9.63985 111.13 8.98202 109.995 7.8756 109.7C6.76917 109.405 5.63353 110.063 5.33882 111.17C5.04411 112.276 5.70194 113.412 6.80837 113.707Z" fill="#2E1656"/>
<path d="M46.1763 12.5293C47.3358 12.8381 48.5256 12.1491 48.8344 10.9896C49.1433 9.82999 48.4539 8.64048 47.2943 8.33162C46.1348 8.02276 44.9453 8.71184 44.6365 9.87141C44.3276 11.031 45.0167 12.2204 46.1763 12.5293Z" fill="#2E1656"/>
<path d="M43.0695 24.191C44.2649 24.5093 45.4926 23.7982 45.811 22.6029C46.1293 21.4075 45.418 20.1801 44.2227 19.8617C43.0273 19.5433 41.8 20.2544 41.4816 21.4497C41.1632 22.645 41.8742 23.8726 43.0695 24.191Z" fill="#2E1656"/>
<path d="M39.9681 35.8364C41.1915 36.1623 42.4467 35.4347 42.7725 34.2116C43.0983 32.9885 42.3712 31.733 41.1479 31.4072C39.9245 31.0813 38.669 31.8088 38.3432 33.0318C38.0174 34.255 38.7448 35.5106 39.9681 35.8364Z" fill="#2E1656"/>
<path d="M36.8706 47.4653C38.1114 47.7958 39.3862 47.0577 39.7169 45.8162C40.0475 44.5749 39.3087 43.3004 38.068 42.97C36.8263 42.6392 35.5523 43.3776 35.2217 44.6189C34.891 45.8603 35.6289 47.1346 36.8706 47.4653Z" fill="#2E1656"/>
<path d="M33.7779 59.0771C35.0283 59.4102 36.312 58.6666 36.645 57.4162C36.978 56.1659 36.2343 54.8823 34.9839 54.5493C33.7335 54.2162 32.4499 54.9598 32.1169 56.2101C31.7838 57.4605 32.5275 58.7441 33.7779 59.0771Z" fill="#2E1656"/>
<path d="M30.6892 70.6741C31.9405 71.0074 33.2242 70.2633 33.5574 69.0124C33.8905 67.7616 33.1471 66.4776 31.8957 66.1443C30.6453 65.8112 29.3606 66.555 29.0274 67.8058C28.6942 69.0567 29.4388 70.341 30.6892 70.6741Z" fill="#2E1656"/>
<path d="M27.6035 82.2578C28.8481 82.5893 30.1251 81.8492 30.4566 80.6049C30.788 79.3605 30.0483 78.0833 28.8037 77.7518C27.5591 77.4203 26.2816 78.1602 25.9502 79.4046C25.6187 80.6489 26.3589 81.9263 27.6035 82.2578Z" fill="#2E1656"/>
<path d="M24.5201 93.8323C25.7531 94.1607 27.0181 93.4275 27.3464 92.1949C27.6747 90.9623 26.942 89.697 25.709 89.3686C24.476 89.0402 23.2107 89.7733 22.8824 91.0058C22.5541 92.2385 23.2871 93.5039 24.5201 93.8323Z" fill="#2E1656"/>
<path d="M21.4388 105.402C22.6573 105.726 23.9075 105.002 24.232 103.784C24.5564 102.566 23.8322 101.315 22.6137 100.991C21.3962 100.666 20.1456 101.391 19.8212 102.609C19.4967 103.827 20.2213 105.077 21.4388 105.402Z" fill="#2E1656"/>
<path d="M18.3578 116.97C19.5608 117.291 20.7959 116.575 21.1163 115.372C21.4367 114.169 20.7212 112.934 19.5181 112.614C18.3151 112.293 17.0803 113.009 16.7599 114.212C16.4395 115.415 17.1547 116.65 18.3578 116.97Z" fill="#2E1656"/>
<path d="M57.7531 15.6887C58.9514 16.0079 60.1815 15.2955 60.5007 14.0972C60.8198 12.899 60.1071 11.6691 58.9087 11.3499C57.7105 11.0308 56.4804 11.7432 56.1613 12.9414C55.8421 14.1396 56.5549 15.3695 57.7531 15.6887Z" fill="#2E1656"/>
<path d="M54.6453 27.358C55.8843 27.688 57.1562 26.9511 57.4862 25.7123C57.8161 24.4735 57.0794 23.201 55.8404 22.871C54.6015 22.541 53.3295 23.2784 52.9995 24.5172C52.6696 25.756 53.4064 27.028 54.6453 27.358Z" fill="#2E1656"/>
<path d="M51.5398 39.0135C52.8117 39.3523 54.1174 38.5958 54.4562 37.3239C54.795 36.052 54.0386 34.7462 52.7666 34.4074C51.4948 34.0687 50.189 34.8252 49.8502 36.097C49.5114 37.369 50.2679 38.6748 51.5398 39.0135Z" fill="#2E1656"/>
<path d="M48.4395 50.654C49.7361 50.9993 51.0671 50.2281 51.4124 48.9316C51.7578 47.635 50.9867 46.3039 49.6901 45.9586C48.3935 45.6132 47.0624 46.3843 46.717 47.6809C46.3717 48.9775 47.1429 50.3086 48.4395 50.654Z" fill="#2E1656"/>
<path d="M45.3435 62.2794C46.6564 62.6291 48.0042 61.8482 48.3539 60.5353C48.7036 59.2224 47.9228 57.8746 46.6099 57.5249C45.297 57.1752 43.9491 57.956 43.5994 59.2689C43.2497 60.5818 44.0306 61.9297 45.3435 62.2794Z" fill="#2E1656"/>
<path d="M42.2509 73.8905C43.5723 74.2425 44.9289 73.4566 45.2809 72.1351C45.6329 70.8136 44.8469 69.457 43.5255 69.1051C42.204 68.7531 40.8474 69.539 40.4954 70.8604C40.1434 72.1819 40.9294 73.5385 42.2509 73.8905Z" fill="#2E1656"/>
<path d="M39.1603 85.4896C40.4838 85.8422 41.8424 85.055 42.1949 83.7316C42.5474 82.4082 41.7603 81.0496 40.4368 80.697C39.1135 80.3446 37.7548 81.1317 37.4023 82.455C37.0498 83.7785 37.8369 85.1372 39.1603 85.4896Z" fill="#2E1656"/>
<path d="M36.0739 97.08C37.3944 97.4317 38.75 96.6463 39.1017 95.3259C39.4534 94.0054 38.668 92.6499 37.3476 92.2982C36.0271 91.9465 34.6716 92.7317 34.3199 94.0522C33.9682 95.3727 34.7534 96.7282 36.0739 97.08Z" fill="#2E1656"/>
<path d="M32.988 108.665C34.3025 109.015 35.652 108.233 36.0021 106.919C36.3522 105.604 35.5704 104.255 34.256 103.905C32.9415 103.555 31.592 104.336 31.2419 105.651C30.8917 106.965 31.6736 108.315 32.988 108.665Z" fill="#2E1656"/>
<path d="M29.9031 120.248C31.2106 120.596 32.5528 119.818 32.9011 118.511C33.2494 117.203 32.4717 115.861 31.1642 115.513C29.8567 115.165 28.5144 115.942 28.1662 117.25C27.8179 118.557 28.5955 119.9 29.9031 120.248Z" fill="#2E1656"/>
<path d="M69.3309 18.8426C70.5656 19.1714 71.8328 18.4379 72.1617 17.2029C72.4907 15.968 71.7563 14.7013 70.5216 14.3724C69.287 14.0436 68.0197 14.7771 67.6908 16.0121C67.3619 17.247 68.0964 18.5137 69.3309 18.8426Z" fill="#2E1656"/>
<path d="M66.2206 30.5197C67.5 30.8605 68.8133 30.0997 69.1541 28.8203C69.4949 27.5409 68.7339 26.2278 67.4545 25.887C66.1751 25.5462 64.8618 26.3068 64.521 27.5862C64.1803 28.8656 64.9412 30.1789 66.2206 30.5197Z" fill="#2E1656"/>
<path d="M63.1138 42.1852C64.4316 42.5362 65.7846 41.7525 66.1356 40.4346C66.4866 39.1167 65.7028 37.7638 64.385 37.4128C63.0671 37.0618 61.7142 37.8456 61.3632 39.1634C61.0122 40.4813 61.7959 41.8342 63.1138 42.1852Z" fill="#2E1656"/>
<path d="M60.0099 53.838C61.3593 54.1974 62.7445 53.3949 63.1039 52.0455C63.4633 50.6961 62.6608 49.3109 61.3115 48.9515C59.962 48.592 58.5768 49.3945 58.2174 50.7439C57.8579 52.0934 58.6605 53.4786 60.0099 53.838Z" fill="#2E1656"/>
<path d="M56.91 65.4781C58.2838 65.844 59.6941 65.027 60.06 63.6532C60.4259 62.2793 59.6089 60.869 58.2351 60.5031C56.8613 60.1372 55.451 60.9542 55.0851 62.328C54.7191 63.7018 55.5362 65.1122 56.91 65.4781Z" fill="#2E1656"/>
<path d="M53.8126 77.1058C55.2041 77.4764 56.6325 76.6489 57.0031 75.2574C57.3737 73.866 56.5462 72.4376 55.1547 72.067C53.7633 71.6964 52.3349 72.5239 51.9643 73.9153C51.5937 75.3068 52.4212 76.7352 53.8126 77.1058Z" fill="#2E1656"/>
<path d="M50.7181 88.7227C52.1213 89.0964 53.5618 88.2619 53.9355 86.8587C54.3093 85.4555 53.4747 84.0151 52.0715 83.6413C50.6684 83.2676 49.2279 84.1021 48.8542 85.5053C48.4804 86.9084 49.315 88.349 50.7181 88.7227Z" fill="#2E1656"/>
<path d="M47.6263 100.331C49.0365 100.707 50.4842 99.868 50.8598 98.4578C51.2354 97.0475 50.3968 95.5999 48.9865 95.2243C47.5763 94.8486 46.1286 95.6873 45.753 97.0975C45.3773 98.5077 46.2161 99.9555 47.6263 100.331Z" fill="#2E1656"/>
<path d="M44.5362 111.934C45.9503 112.31 47.402 111.469 47.7787 110.055C48.1553 108.641 47.3143 107.19 45.9002 106.813C44.4862 106.436 43.0345 107.277 42.6579 108.691C42.2812 110.105 43.1222 111.557 44.5362 111.934Z" fill="#2E1656"/>
<path d="M41.4467 123.533C42.8628 123.91 44.3165 123.068 44.6937 121.652C45.0708 120.236 44.2286 118.782 42.8126 118.405C41.3966 118.028 39.9429 118.87 39.5658 120.286C39.1886 121.702 40.0307 123.156 41.4467 123.533Z" fill="#2E1656"/>
<path d="M80.9094 21.9952C82.1789 22.3333 83.4821 21.5783 83.8203 20.3086C84.1585 19.0388 83.4035 17.7356 82.1341 17.3975C80.8646 17.0594 79.5614 17.8144 79.2232 19.0841C78.885 20.3538 79.64 21.6571 80.9094 21.9952Z" fill="#2E1656"/>
<path d="M77.7976 33.6779C79.1153 34.0289 80.468 33.2456 80.8191 31.9276C81.1702 30.6095 80.3863 29.2572 79.0686 28.9062C77.7509 28.5552 76.3982 29.3385 76.0472 30.6565C75.6961 31.9746 76.4799 33.327 77.7976 33.6779Z" fill="#2E1656"/>
<path d="M74.6883 45.3527C76.0497 45.7153 77.4473 44.9057 77.8099 43.5442C78.1725 42.1829 77.3629 40.7852 76.0014 40.4226C74.64 40.06 73.2424 40.8697 72.8798 42.2311C72.5172 43.5925 73.3268 44.9901 74.6883 45.3527Z" fill="#2E1656"/>
<path d="M71.5807 57.0178C72.9805 57.3906 74.4175 56.5581 74.7903 55.1583C75.1631 53.7586 74.3306 52.3217 72.9309 51.9488C71.5311 51.576 70.0942 52.4085 69.7214 53.8082C69.3485 55.208 70.1809 56.6449 71.5807 57.0178Z" fill="#2E1656"/>
<path d="M68.4766 68.6729C69.9091 69.0545 71.3796 68.2025 71.7612 66.77C72.1427 65.3375 71.2908 63.867 69.8583 63.4855C68.4258 63.1039 66.9553 63.9558 66.5737 65.3883C66.1922 66.8208 67.0441 68.2914 68.4766 68.6729Z" fill="#2E1656"/>
<path d="M65.3757 80.3175C66.8353 80.7063 68.3337 79.8382 68.7225 78.3786C69.1112 76.9191 68.2432 75.4207 66.7836 75.0319C65.3239 74.6431 63.8255 75.5112 63.4368 76.9707C63.048 78.4304 63.9161 79.9288 65.3757 80.3175Z" fill="#2E1656"/>
<path d="M62.2764 91.953C63.758 92.3476 65.2789 91.4664 65.6735 89.9848C66.0681 88.5033 65.187 86.9823 63.7055 86.5877C62.2239 86.1931 60.7029 87.0742 60.3083 88.5557C59.9137 90.0373 60.7949 91.5583 62.2764 91.953Z" fill="#2E1656"/>
<path d="M59.1793 103.58C60.6783 103.98 62.2172 103.088 62.6165 101.589C63.0158 100.09 62.1243 98.5509 60.6252 98.1516C59.1261 97.7523 57.5872 98.6439 57.1879 100.143C56.7886 101.642 57.6802 103.181 59.1793 103.58Z" fill="#2E1656"/>
<path d="M56.0839 115.201C57.5968 115.604 59.1499 114.704 59.5529 113.191C59.9559 111.678 59.0561 110.125 57.5432 109.722C56.0303 109.319 54.4772 110.219 54.0742 111.732C53.6712 113.245 54.571 114.798 56.0839 115.201Z" fill="#2E1656"/>
<path d="M52.9898 126.817C54.5137 127.223 56.0781 126.316 56.4839 124.793C56.8898 123.269 55.9835 121.704 54.4597 121.298C52.9358 120.893 51.3714 121.799 50.9655 123.323C50.5597 124.847 51.466 126.411 52.9898 126.817Z" fill="#2E1656"/>
<path d="M92.4886 25.1463C93.7931 25.4937 95.1322 24.7182 95.4796 23.4137C95.8271 22.1092 95.0511 20.7704 93.7467 20.4229C92.4422 20.0755 91.1032 20.851 90.7557 22.1555C90.4083 23.46 91.1841 24.7988 92.4886 25.1463Z" fill="#2E1656"/>
<path d="M89.3761 36.8342C90.7314 37.1951 92.1228 36.3887 92.4837 35.0339C92.8448 33.6782 92.0387 32.2869 90.6835 31.9259C89.3281 31.5649 87.9368 32.3709 87.5757 33.7267C87.2148 35.0814 88.0208 36.4732 89.3761 36.8342Z" fill="#2E1656"/>
<path d="M86.2637 48.517C87.6671 48.8908 89.1077 48.0562 89.4815 46.6528C89.8553 45.2496 89.0206 43.8089 87.6173 43.4351C86.2139 43.0613 84.7733 43.8959 84.3995 45.2992C84.0257 46.7026 84.8603 48.1432 86.2637 48.517Z" fill="#2E1656"/>
<path d="M83.1538 60.1938C84.6016 60.5794 86.088 59.7183 86.4737 58.2704C86.8593 56.8226 85.9982 55.3362 84.5504 54.9505C83.1025 54.5649 81.616 55.426 81.2304 56.8738C80.8447 58.3217 81.7059 59.8082 83.1538 60.1938Z" fill="#2E1656"/>
<path d="M80.0453 71.8623C81.5337 72.2587 83.0616 71.3735 83.458 69.8851C83.8545 68.3968 82.9693 66.8688 81.4809 66.4724C79.9926 66.076 78.4646 66.9612 78.0682 68.4495C77.6717 69.9379 78.557 71.4658 80.0453 71.8623Z" fill="#2E1656"/>
<path d="M76.9398 83.5236C78.4644 83.9296 80.0294 83.023 80.4354 81.4984C80.8415 79.974 79.9348 78.409 78.4103 78.0029C76.8858 77.5969 75.3209 78.5035 74.9148 80.028C74.5087 81.5525 75.4154 83.1175 76.9398 83.5236Z" fill="#2E1656"/>
<path d="M73.8358 95.1768C75.3919 95.5913 76.9893 94.6657 77.4038 93.1096C77.8183 91.5534 76.8929 89.9559 75.3368 89.5414C73.7806 89.127 72.1831 90.0525 71.7686 91.6086C71.3541 93.1648 72.2796 94.7623 73.8358 95.1768Z" fill="#2E1656"/>
<path d="M70.7345 106.822C72.318 107.244 73.9434 106.302 74.3652 104.718C74.787 103.135 73.8453 101.509 72.2618 101.088C70.6784 100.666 69.0529 101.608 68.6311 103.191C68.2094 104.775 69.1511 106.4 70.7345 106.822Z" fill="#2E1656"/>
<path d="M67.6339 118.46C69.2406 118.887 70.8899 117.932 71.3178 116.325C71.7457 114.719 70.7903 113.069 69.1836 112.641C67.577 112.213 65.9277 113.169 65.4998 114.776C65.0718 116.382 66.0273 118.032 67.6339 118.46Z" fill="#2E1656"/>
<path d="M64.5361 130.091C66.1622 130.524 67.8316 129.557 68.2647 127.931C68.6978 126.304 67.7307 124.635 66.1046 124.202C64.4784 123.769 62.8091 124.736 62.3759 126.362C61.9428 127.988 62.9099 129.658 64.5361 130.091Z" fill="#2E1656"/>
<path d="M104.067 28.3019C105.408 28.6591 106.785 27.8616 107.142 26.5204C107.499 25.1792 106.701 23.8025 105.36 23.4452C104.019 23.088 102.642 23.8855 102.285 25.2267C101.928 26.568 102.726 27.9447 104.067 28.3019Z" fill="#2E1656"/>
<path d="M100.953 39.9912C102.346 40.3623 103.776 39.5342 104.147 38.1408C104.519 36.7474 103.69 35.318 102.297 34.9469C100.904 34.5759 99.4738 35.4037 99.1027 36.7971C98.7315 38.1906 99.5602 39.6202 100.953 39.9912Z" fill="#2E1656"/>
<path d="M97.8403 51.6795C99.2844 52.0642 100.767 51.2053 101.152 49.7611C101.536 48.3171 100.677 46.8346 99.2333 46.45C97.7891 46.0653 96.3066 46.9242 95.922 48.3682C95.5373 49.8124 96.3962 51.2949 97.8403 51.6795Z" fill="#2E1656"/>
<path d="M94.7275 63.3647C96.221 63.7625 97.7541 62.8743 98.1519 61.3808C98.5497 59.8874 97.6614 58.3543 96.168 57.9566C94.6746 57.5588 93.1415 58.4469 92.7438 59.9403C92.346 61.4338 93.2341 62.9669 94.7275 63.3647Z" fill="#2E1656"/>
<path d="M91.6164 75.0448C93.1566 75.455 94.7378 74.539 95.1481 72.9987C95.5583 71.4585 94.6422 69.8774 93.102 69.4671C91.5618 69.0569 89.9807 69.9729 89.5705 71.5131C89.1602 73.0534 90.0762 74.6345 91.6164 75.0448Z" fill="#2E1656"/>
<path d="M88.5073 86.7196C90.0911 87.1414 91.717 86.1995 92.1389 84.6156C92.5607 83.0318 91.6188 81.4059 90.035 80.984C88.4511 80.5622 86.8252 81.5041 86.4033 83.0879C85.9815 84.6718 86.9234 86.2977 88.5073 86.7196Z" fill="#2E1656"/>
<path d="M85.399 98.3878C87.0227 98.8203 88.6895 97.8546 89.122 96.2309C89.5544 94.6072 88.5888 92.9404 86.9651 92.5079C85.3414 92.0755 83.6745 93.0411 83.2421 94.6648C82.8096 96.2884 83.7753 97.9554 85.399 98.3878Z" fill="#2E1656"/>
<path d="M82.293 110.048C83.9526 110.49 85.6562 109.503 86.0982 107.844C86.5402 106.184 85.5533 104.481 83.8937 104.039C82.2342 103.597 80.5305 104.584 80.0885 106.243C79.6465 107.903 80.6335 109.606 82.293 110.048Z" fill="#2E1656"/>
<path d="M79.1889 121.701C80.8801 122.151 82.6161 121.146 83.0666 119.455C83.517 117.764 82.5112 116.027 80.8201 115.577C79.1291 115.127 77.393 116.132 76.9426 117.823C76.4921 119.515 77.4979 121.251 79.1889 121.701Z" fill="#2E1656"/>
<path d="M76.0878 133.346C77.8062 133.804 79.5703 132.782 80.028 131.063C80.4857 129.345 79.4637 127.581 77.7453 127.123C76.0269 126.666 74.2628 127.688 73.8051 129.406C73.3474 131.124 74.3694 132.888 76.0878 133.346Z" fill="#2E1656"/>
<path d="M115.644 31.4609C117.024 31.8285 118.441 31.0075 118.808 29.6276C119.176 28.2477 118.355 26.8307 116.975 26.4631C115.595 26.0956 114.178 26.9166 113.811 28.2965C113.443 29.6764 114.264 31.0933 115.644 31.4609Z" fill="#2E1656"/>
<path d="M112.531 43.1487C113.962 43.5299 115.431 42.6791 115.812 41.248C116.193 39.8169 115.342 38.3484 113.911 37.9672C112.48 37.5861 111.011 38.4367 110.63 39.8678C110.249 41.2989 111.1 42.7676 112.531 43.1487Z" fill="#2E1656"/>
<path d="M109.417 54.8385C110.899 55.2335 112.422 54.3515 112.817 52.8686C113.212 51.3857 112.33 49.8635 110.847 49.4685C109.364 49.0735 107.842 49.9554 107.447 51.4383C107.052 52.9212 107.934 54.4435 109.417 54.8385Z" fill="#2E1656"/>
<path d="M106.304 66.5283C107.839 66.9371 109.414 66.0242 109.823 64.4893C110.232 62.9544 109.319 61.3786 107.784 60.9698C106.249 60.5609 104.674 61.4738 104.265 63.0087C103.856 64.5437 104.769 66.1194 106.304 66.5283Z" fill="#2E1656"/>
<path d="M103.19 78.2165C104.776 78.639 106.404 77.6957 106.826 76.1096C107.249 74.5236 106.306 72.8953 104.72 72.4729C103.134 72.0504 101.505 72.9937 101.083 74.5797C100.66 76.1658 101.604 77.7941 103.19 78.2165Z" fill="#2E1656"/>
<path d="M100.078 89.9013C101.713 90.3369 103.392 89.3643 103.828 87.729C104.263 86.0938 103.291 84.415 101.656 83.9795C100.02 83.5439 98.3414 84.5165 97.9059 86.1517C97.4703 87.7869 98.4429 89.4657 100.078 89.9013Z" fill="#2E1656"/>
<path d="M96.9668 101.581C98.6484 102.029 100.375 101.029 100.823 99.3472C101.271 97.6655 100.271 95.9391 98.5889 95.4912C96.9072 95.0433 95.1808 96.0434 94.7329 97.7251C94.285 99.4067 95.2851 101.133 96.9668 101.581Z" fill="#2E1656"/>
<path d="M93.8571 113.254C95.5815 113.714 97.3518 112.688 97.8112 110.963C98.2705 109.239 97.2449 107.469 95.5204 107.009C93.796 106.55 92.0256 107.576 91.5663 109.3C91.107 111.025 92.1326 112.795 93.8571 113.254Z" fill="#2E1656"/>
<path d="M90.75 124.92C92.5131 125.39 94.3231 124.341 94.7927 122.578C95.2623 120.815 94.2137 119.005 92.4506 118.535C90.6875 118.066 88.8775 119.114 88.4079 120.877C87.9383 122.641 88.9869 124.451 90.75 124.92Z" fill="#2E1656"/>
<path d="M87.6457 136.577C89.4427 137.056 91.2874 135.987 91.7661 134.19C92.2447 132.393 91.176 130.548 89.379 130.07C87.582 129.591 85.7371 130.66 85.2585 132.457C84.7798 134.254 85.8486 136.099 87.6457 136.577Z" fill="#2E1656"/>
<path d="M127.22 34.6217C128.64 35 130.098 34.1558 130.476 32.7353C130.854 31.3148 130.01 29.8573 128.589 29.479C127.169 29.1008 125.712 29.945 125.333 31.3655C124.955 32.786 125.799 34.2435 127.22 34.6217Z" fill="#2E1656"/>
<path d="M124.108 46.3046C125.576 46.6957 127.084 45.8221 127.475 44.3543C127.866 42.8855 126.993 41.3789 125.524 40.9879C124.056 40.5968 122.549 41.4693 122.158 42.9381C121.767 44.4059 122.64 45.9135 124.108 46.3046Z" fill="#2E1656"/>
<path d="M120.995 57.9928C122.514 58.3975 124.074 57.4939 124.479 55.9745C124.884 54.4552 123.98 52.8955 122.461 52.4908C120.941 52.0861 119.381 52.9897 118.977 54.509C118.572 56.0284 119.476 57.5882 120.995 57.9928Z" fill="#2E1656"/>
<path d="M117.881 69.6846C119.453 70.1034 121.067 69.1683 121.486 67.5959C121.905 66.0236 120.969 64.4095 119.397 63.9907C117.825 63.5719 116.211 64.5071 115.792 66.0793C115.373 67.6517 116.308 69.2658 117.881 69.6846Z" fill="#2E1656"/>
<path d="M114.766 81.3775C116.392 81.8106 118.061 80.8435 118.494 79.2176C118.927 77.5917 117.96 75.9225 116.334 75.4895C114.708 75.0564 113.039 76.0233 112.606 77.6493C112.173 79.2752 113.14 80.9444 114.766 81.3775Z" fill="#2E1656"/>
<path d="M111.652 93.0692C113.331 93.5164 115.055 92.518 115.502 90.839C115.949 89.1601 114.951 87.4366 113.272 86.9894C111.593 86.5422 109.869 87.5407 109.422 89.2196C108.975 90.8986 109.974 92.622 111.652 93.0692Z" fill="#2E1656"/>
<path d="M108.539 104.757C110.269 105.218 112.045 104.189 112.506 102.459C112.967 100.729 111.938 98.9534 110.208 98.4926C108.478 98.0318 106.702 99.0606 106.241 100.791C105.781 102.521 106.809 104.297 108.539 104.757Z" fill="#2E1656"/>
<path d="M105.427 116.44C107.205 116.913 109.03 115.856 109.504 114.078C109.978 112.3 108.92 110.475 107.142 110.001C105.364 109.527 103.539 110.585 103.065 112.363C102.592 114.141 103.649 115.966 105.427 116.44Z" fill="#2E1656"/>
<path d="M102.317 128.115C104.139 128.6 106.01 127.517 106.495 125.695C106.98 123.873 105.897 122.002 104.075 121.517C102.253 121.032 100.382 122.115 99.897 123.937C99.4118 125.759 100.495 127.63 102.317 128.115Z" fill="#2E1656"/>
<path d="M99.2107 139.781C101.072 140.277 102.982 139.17 103.478 137.309C103.973 135.448 102.867 133.538 101.006 133.042C99.1447 132.547 97.2344 133.653 96.7387 135.514C96.243 137.375 97.3497 139.286 99.2107 139.781Z" fill="#2E1656"/>
<path d="M138.795 37.7857C140.257 38.1751 141.758 37.306 142.147 35.844C142.537 34.382 141.667 32.8816 140.205 32.4923C138.744 32.1029 137.243 32.9719 136.853 34.4339C136.464 35.896 137.334 37.3963 138.795 37.7857Z" fill="#2E1656"/>
<path d="M135.686 49.4621C137.192 49.8633 138.738 48.9679 139.139 47.4615C139.541 45.955 138.645 44.4093 137.139 44.0082C135.633 43.607 134.086 44.5022 133.685 46.0087C133.284 47.5152 134.18 49.0609 135.686 49.4621Z" fill="#2E1656"/>
<path d="M132.574 61.146C134.129 61.5602 135.725 60.6353 136.14 59.0803C136.554 57.5252 135.629 55.9288 134.074 55.5145C132.519 55.1003 130.922 56.0252 130.508 57.5803C130.094 59.1354 131.019 60.7318 132.574 61.146Z" fill="#2E1656"/>
<path d="M129.46 72.8371C131.067 73.2652 132.717 72.3091 133.145 70.7017C133.574 69.0942 132.617 67.4441 131.01 67.0159C129.403 66.5877 127.752 67.5437 127.324 69.1512C126.896 70.7586 127.852 72.4089 129.46 72.8371Z" fill="#2E1656"/>
<path d="M126.344 84.531C128.006 84.9737 129.712 83.9854 130.155 82.3234C130.598 80.6616 129.609 78.9555 127.947 78.5129C126.286 78.0702 124.579 79.0586 124.137 80.7204C123.694 82.3824 124.683 84.0884 126.344 84.531Z" fill="#2E1656"/>
<path d="M123.229 96.2262C124.946 96.6835 126.709 95.6624 127.166 93.9457C127.623 92.2289 126.602 90.4666 124.885 90.0093C123.169 89.552 121.406 90.573 120.949 92.2898C120.492 94.0065 121.513 95.769 123.229 96.2262Z" fill="#2E1656"/>
<path d="M120.115 107.919C121.886 108.391 123.704 107.338 124.175 105.567C124.647 103.797 123.594 101.979 121.823 101.508C120.053 101.036 118.235 102.089 117.764 103.859C117.292 105.63 118.345 107.447 120.115 107.919Z" fill="#2E1656"/>
<path d="M117.002 119.607C118.824 120.092 120.694 119.009 121.179 117.187C121.665 115.366 120.581 113.496 118.759 113.01C116.938 112.525 115.068 113.609 114.583 115.43C114.097 117.252 115.181 119.122 117.002 119.607Z" fill="#2E1656"/>
<path d="M113.891 131.289C115.759 131.786 117.678 130.675 118.176 128.806C118.673 126.937 117.562 125.019 115.693 124.521C113.824 124.023 111.906 125.135 111.408 127.004C110.91 128.872 112.022 130.791 113.891 131.289Z" fill="#2E1656"/>
<path d="M110.781 142.96C112.692 143.469 114.654 142.333 115.163 140.422C115.672 138.511 114.535 136.55 112.625 136.041C110.714 135.532 108.752 136.668 108.243 138.579C107.734 140.49 108.871 142.451 110.781 142.96Z" fill="#2E1656"/>
</g>
<defs>
<clipPath id="clip0_483_240">
<rect width="120" height="120" fill="white" transform="translate(115.957 146.843) rotate(-165.085)"/>
</clipPath>
</defs>
</svg>
